<?xml version="1.0" standalone="no"?>
<!DOCTYPE svg PUBLIC "-//W3C//DTD SVG 1.1//EN" "http://www.w3.org/Graphics/SVG/1.1/DTD/svg11.dtd">
<svg xmlns="http://www.w3.org/2000/svg" width="269" height="254" viewBox="0 0 269 254" fill="none">
<path d="M268.575 5.2696L136.709 252.424C136.494 252.825 136.175 253.16 135.785 253.393C135.395 253.626 134.949 253.75 134.495 253.75C134.04 253.75 133.595 253.626 133.205 253.393C132.815 253.16 132.495 252.825 132.281 252.424L0.415221 5.2696C0.126528 4.72247 -0.0160027 4.11007 0.00142656 3.49169C0.0188558 2.87331 0.195654 2.2699 0.514706 1.7399C0.833758 1.20989 1.28425 0.771249 1.82257 0.466434C2.36089 0.161619 2.96879 0.000960973 3.58741 1.653e-05H115.075C116.07 -0.000169671 117.046 0.27037 117.899 0.782654C118.752 1.29494 119.45 2.02966 119.918 2.90811L132.296 26.1146C132.51 26.5118 132.827 26.8437 133.214 27.075C133.601 27.3064 134.044 27.4285 134.495 27.4285C134.946 27.4285 135.388 27.3064 135.776 27.075C136.163 26.8437 136.48 26.5118 136.694 26.1146L149.072 2.90811C149.539 2.03104 150.235 1.29722 151.086 0.785025C151.938 0.27283 152.912 0.00150005 153.906 1.653e-05H265.412C266.031 -0.00186652 266.641 0.157165 267.18 0.46154C267.72 0.765915 268.171 1.2052 268.49 1.73639C268.809 2.26757 268.984 2.87245 268.999 3.4918C269.014 4.11116 268.868 4.72375 268.575 5.2696Z" fill="#131313"/>
</svg>