<?xml version="1.0" standalone="no"?>
<!DOCTYPE svg PUBLIC "-//W3C//DTD SVG 1.1//EN" "http://www.w3.org/Graphics/SVG/1.1/DTD/svg11.dtd">
<svg xmlns="http://www.w3.org/2000/svg" width="72" height="24" viewBox="0 0 72 24" fill="none">
<path fill-rule="evenodd" clip-rule="evenodd" d="M46.7321 16.7466C46.7321 16.7757 46.7321 16.8048 46.7309 16.8338C46.7296 16.9735 46.7208 17.1099 46.7043 17.2423C46.7017 17.2706 46.6929 17.336 46.6916 17.3408C46.5902 18.0222 46.2722 18.5946 45.4881 18.9175C45.0523 19.0975 44.4671 19.2 43.6943 19.2H41.8868C41.7118 19.2 41.5699 19.0588 41.5699 18.8844V14.449C41.5699 14.2747 41.7118 14.1334 41.8868 14.1334H43.6943C44.4671 14.1334 45.0523 14.2399 45.4881 14.4297C46.4839 14.8575 46.7283 15.7125 46.7321 16.7224V16.7466ZM41.5699 5.11064C41.5699 4.93898 41.7163 4.79991 41.897 4.79991H43.4707C44.1623 4.79991 44.6852 4.90084 45.0761 5.08124C45.9729 5.48892 46.1887 6.30984 46.1887 7.2762C46.1887 8.16229 45.9729 8.94031 45.0761 9.3321C44.6852 9.50296 44.1623 9.59991 43.4707 9.59991H41.897C41.7163 9.59991 41.5699 9.46084 41.5699 9.28918V5.11064ZM72 4.64482V0.315519C72 0.141217 71.8562 0 71.6786 0H54.1557C53.9783 0 53.8344 0.141217 53.8344 0.315519V4.62384C53.8344 4.79814 53.9783 4.93936 54.1557 4.93936H63.1588C63.4248 4.93936 63.5757 5.23874 63.4142 5.44613L53.4586 18.2509C53.3788 18.3533 53.2128 18.2856 53.2292 18.1573C53.262 17.9006 53.2823 17.6465 53.2823 17.4124C53.2823 14.208 51.5873 12.4335 49.1557 11.7815C49.0306 11.7476 49.032 11.5741 49.1564 11.5386C51.3037 10.927 52.6249 9.13794 52.6249 6.59442C52.6249 2.59597 50.5012 0.00645563 45.196 0.00645563H38.18C38.1783 0.00645563 38.1772 0.00476936 38.1778 0.00322781V0.00322781C38.1784 0.00168627 38.1773 0 38.1756 0H31.9457C31.8184 0 31.703 0.0742397 31.6517 0.18802L27.3872 9.69393C27.2746 9.94489 26.912 9.94489 26.7995 9.69393L22.535 0.18802C22.4836 0.0742397 22.3683 0 22.241 0H15.7652C15.6378 0 15.5225 0.0742397 15.4711 0.18802L11.2068 9.69312C11.0941 9.94408 10.7314 9.94408 10.6188 9.69312L6.35441 0.18802C6.30312 0.0742397 6.18773 0 6.06042 0H0.321677C0.0890825 0 -0.0664185 0.234823 0.0280985 0.443824L10.6193 23.8124C10.7324 24.0625 11.0932 24.0625 11.2063 23.8124L18.8863 6.86717C18.9313 6.76792 19.0748 6.76792 19.1199 6.86717L23.8435 17.289C23.8803 17.3705 23.8805 17.4633 23.8438 17.5448L21.1436 23.5485C21.0498 23.7567 21.2053 23.9915 21.4375 23.9915H27.0978C27.2247 23.9915 27.3397 23.9181 27.3913 23.8043L34.9505 7.12459C35.007 7.00032 35.1964 7.03986 35.1964 7.17543V23.6825C35.1964 23.856 35.3403 23.9972 35.5177 23.9972H45.2319C49.0227 23.9972 51.3999 22.8537 52.5186 20.7936C52.5814 20.6782 52.759 20.7201 52.76 20.8517L52.7803 23.676C52.7803 23.8503 52.9242 23.9915 53.1016 23.9915H71.6786C71.8562 23.9915 72 23.8503 72 23.676V19.3677C72 19.1934 71.8562 19.0522 71.6786 19.0522H61.5303C61.2643 19.0522 61.1135 18.7528 61.2749 18.5454L71.9341 4.83607C71.9767 4.7812 72 4.71422 72 4.64482Z" fill="#FFFFFF"/>
</svg>