<svg width="144" height="216" viewBox="0 0 144 216" fill="none" xmlns="http://www.w3.org/2000/svg">
<path d="M143.77 2.832L73.1842 135.658C73.0693 135.874 72.8983 136.053 72.6896 136.179C72.4809 136.304 72.2422 136.371 71.999 136.371C71.7557 136.371 71.517 136.304 71.3083 136.179C71.0996 136.053 70.9287 135.874 70.8138 135.658L0.228121 2.832C0.0735879 2.53796 -0.00270662 2.20884 0.00662299 1.87651C0.0159526 1.54418 0.11059 1.21989 0.281374 0.935058C0.452158 0.650222 0.693301 0.414486 0.981454 0.250672C1.26961 0.0868574 1.59501 0.000516448 1.92615 8.88359e-06H61.6037C62.1363 -9.11848e-05 62.659 0.145303 63.1156 0.420616C63.5723 0.695928 63.9457 1.09078 64.1959 1.56288L70.822 14.0345C70.9364 14.248 71.1062 14.4264 71.3134 14.5507C71.5207 14.675 71.7576 14.7407 71.999 14.7407C72.2404 14.7407 72.4773 14.675 72.6845 14.5507C72.8918 14.4264 73.0616 14.248 73.1759 14.0345L79.802 1.56288C80.0518 1.09153 80.4245 0.697155 80.8802 0.42189C81.3359 0.146625 81.8575 0.000806159 82.3893 8.88359e-06H142.077C142.408 -0.00100311 142.735 0.0844636 143.023 0.248042C143.312 0.411619 143.554 0.6477 143.725 0.933171C143.895 1.21864 143.989 1.54372 143.997 1.87657C144.005 2.20942 143.927 2.53864 143.77 2.832Z" fill="#131313"/>
<path d="M144 176.415V167.561C144 167.39 143.933 167.227 143.812 167.106C143.692 166.985 143.529 166.916 143.359 166.916H108.312C108.141 166.916 107.978 166.984 107.857 167.105C107.737 167.226 107.669 167.39 107.669 167.561V176.372C107.669 176.544 107.737 176.708 107.857 176.829C107.978 176.95 108.141 177.018 108.312 177.018H126.318C126.438 177.018 126.555 177.051 126.657 177.115C126.759 177.178 126.841 177.269 126.894 177.377C126.947 177.484 126.969 177.605 126.958 177.725C126.946 177.844 126.902 177.959 126.829 178.054L106.918 204.242C106.884 204.287 106.835 204.32 106.78 204.335C106.725 204.35 106.667 204.347 106.615 204.325C106.562 204.303 106.518 204.264 106.49 204.214C106.462 204.165 106.451 204.107 106.459 204.05C106.526 203.545 106.561 203.035 106.564 202.526C106.564 195.974 103.175 192.345 98.3127 191.011C98.2591 190.996 98.212 190.963 98.1784 190.919C98.1449 190.874 98.1267 190.819 98.1267 190.763C98.1267 190.708 98.1449 190.653 98.1784 190.608C98.212 190.564 98.2591 190.531 98.3127 190.516C102.608 189.265 105.251 185.606 105.251 180.404C105.251 172.227 101.004 166.931 90.3929 166.931H76.3534V166.918H63.8919C63.7673 166.918 63.6455 166.954 63.5411 167.023C63.4366 167.091 63.3541 167.188 63.3034 167.302L54.7722 186.742C54.722 186.856 54.6396 186.954 54.5351 187.022C54.4306 187.091 54.3085 187.127 54.1837 187.127C54.0589 187.127 53.9368 187.091 53.8323 187.022C53.7278 186.954 53.6454 186.856 53.5952 186.742L45.0738 167.301C45.0231 167.186 44.9406 167.089 44.8362 167.021C44.7318 166.953 44.6099 166.916 44.4854 166.916H31.5307C31.4061 166.916 31.2843 166.953 31.1799 167.021C31.0755 167.089 30.9929 167.186 30.9422 167.301L22.4143 186.74C22.3641 186.855 22.2817 186.952 22.1772 187.021C22.0727 187.089 21.9506 187.126 21.8258 187.126C21.701 187.126 21.5789 187.089 21.4744 187.021C21.3699 186.952 21.2875 186.855 21.2373 186.74L12.7094 167.301C12.6587 167.186 12.5761 167.089 12.4717 167.021C12.3673 166.953 12.2455 166.916 12.1209 166.916H0.644016C0.536792 166.916 0.431218 166.943 0.336909 166.994C0.2426 167.045 0.162552 167.119 0.104059 167.209C0.0455651 167.3 0.0104847 167.403 0.00201058 167.51C-0.00646352 167.618 0.0119379 167.725 0.0555409 167.824L21.239 215.616C21.2891 215.73 21.3712 215.828 21.4754 215.896C21.5796 215.964 21.7014 216.001 21.8258 216.001C21.9502 216.001 22.072 215.964 22.1762 215.896C22.2804 215.828 22.3625 215.73 22.4126 215.616L37.7721 180.959C37.7923 180.913 37.8252 180.875 37.8667 180.848C37.9083 180.821 37.9568 180.806 38.0064 180.806C38.056 180.806 38.1045 180.821 38.146 180.848C38.1876 180.875 38.2205 180.913 38.2406 180.959L47.6875 202.271C47.724 202.354 47.7429 202.443 47.7429 202.533C47.7429 202.623 47.724 202.712 47.6875 202.795L42.2876 215.073C42.2444 215.171 42.2263 215.279 42.2349 215.386C42.2435 215.493 42.2785 215.596 42.3367 215.686C42.395 215.776 42.4747 215.849 42.5686 215.901C42.6624 215.952 42.7676 215.979 42.8745 215.979H54.1952C54.3196 215.979 54.4414 215.943 54.5458 215.875C54.6503 215.807 54.7329 215.71 54.7837 215.596L69.9065 181.484C69.9294 181.428 69.9709 181.383 70.0237 181.355C70.0766 181.327 70.1375 181.318 70.1959 181.331C70.2544 181.343 70.3067 181.375 70.3439 181.422C70.3811 181.469 70.4008 181.528 70.3996 181.588V215.347C70.4 215.518 70.4679 215.682 70.5884 215.802C70.7089 215.923 70.8721 215.991 71.0423 215.991H90.4636C98.0464 215.991 102.792 213.652 105.037 209.439C105.064 209.388 105.107 209.348 105.159 209.324C105.211 209.3 105.27 209.295 105.325 209.309C105.381 209.322 105.43 209.354 105.466 209.399C105.501 209.445 105.52 209.5 105.521 209.558L105.562 215.334C105.562 215.505 105.629 215.669 105.75 215.79C105.871 215.911 106.034 215.979 106.204 215.979H143.354C143.524 215.979 143.687 215.91 143.807 215.79C143.928 215.669 143.995 215.505 143.995 215.334V206.523C143.995 206.352 143.928 206.188 143.807 206.067C143.687 205.946 143.524 205.878 143.354 205.877H123.061C122.942 205.877 122.824 205.844 122.723 205.78C122.621 205.717 122.539 205.626 122.486 205.518C122.432 205.411 122.41 205.29 122.422 205.17C122.433 205.051 122.478 204.937 122.55 204.841L143.865 176.807C143.952 176.695 143.999 176.557 144 176.415ZM83.3082 177.312C83.3082 177.141 83.3757 176.977 83.4959 176.856C83.6161 176.735 83.7791 176.667 83.9493 176.666H87.0413C88.399 176.666 89.4264 176.876 90.194 177.25C91.9562 178.097 92.3803 179.802 92.3803 181.809C92.3803 183.649 91.9562 185.265 90.194 186.078C89.4264 186.433 88.399 186.634 87.0413 186.634H83.9493C83.7791 186.634 83.6161 186.566 83.4959 186.445C83.3757 186.324 83.3082 186.16 83.3082 185.989V177.312ZM93.7726 201.167C93.7726 201.227 93.7726 201.286 93.7726 201.346C93.7697 201.625 93.7516 201.903 93.7183 202.181C93.7183 202.238 93.6953 202.372 93.6937 202.382C93.4882 203.775 92.8422 204.945 91.2526 205.605C90.3699 205.973 89.1831 206.183 87.6166 206.183H83.9493C83.7791 206.182 83.6161 206.114 83.4959 205.993C83.3757 205.872 83.3082 205.708 83.3082 205.537V196.47C83.3082 196.3 83.3757 196.136 83.4959 196.015C83.6161 195.894 83.7791 195.826 83.9493 195.825H87.6133C89.1798 195.825 90.3666 196.043 91.2493 196.431C93.2679 197.305 93.7643 199.053 93.7726 201.119V201.167Z" fill="#131313"/>
</svg>
