<svg width="117" height="110" viewBox="0 0 117 110" fill="none" xmlns="http://www.w3.org/2000/svg">
<path d="M116.427 2.28436L59.2631 109.425C59.17 109.599 59.0316 109.744 58.8626 109.845C58.6936 109.947 58.5002 110 58.3032 110C58.1063 110 57.9129 109.947 57.7439 109.845C57.5749 109.744 57.4365 109.599 57.3435 109.425L0.179997 2.28436C0.0548496 2.04718 -0.00693712 1.78171 0.000618409 1.51364C0.00817394 1.24557 0.0848157 0.983996 0.223124 0.754241C0.361433 0.524486 0.556721 0.334335 0.79008 0.202198C1.02344 0.0700614 1.28696 0.00041658 1.55514 7.16573e-06H49.8847C50.3161 -7.35519e-05 50.7393 0.117205 51.1091 0.339279C51.4789 0.561353 51.7814 0.879855 51.984 1.26066L57.3501 11.3206C57.4427 11.4928 57.5802 11.6367 57.7481 11.737C57.9159 11.8373 58.1077 11.8902 58.3032 11.8902C58.4988 11.8902 58.6906 11.8373 58.8584 11.737C59.0263 11.6367 59.1638 11.4928 59.2564 11.3206L64.6225 1.26066C64.8248 0.880453 65.1266 0.562343 65.4957 0.340307C65.8647 0.118271 66.2871 0.000650268 66.7178 7.16573e-06H115.055C115.324 -0.000809133 115.588 0.0681305 115.822 0.200077C116.056 0.332023 116.252 0.522451 116.39 0.75272C116.528 0.982988 116.604 1.2452 116.61 1.51369C116.617 1.78218 116.554 2.04773 116.427 2.28436Z" fill="#131313"/>
</svg>
