<svg width="165" height="55" viewBox="0 0 165 55" fill="none" xmlns="http://www.w3.org/2000/svg">
<path fill-rule="evenodd" clip-rule="evenodd" d="M107.094 38.3777C107.094 38.4443 107.094 38.5109 107.092 38.5775C107.089 38.8976 107.068 39.2102 107.031 39.5136C107.025 39.5784 107.005 39.7282 107.002 39.7393C106.769 41.3008 106.041 42.6125 104.244 43.3526C103.245 43.7651 101.904 44.0001 100.133 44.0001H95.9907C95.5895 44.0001 95.2642 43.6763 95.2642 43.2767V33.1124C95.2642 32.7127 95.5895 32.389 95.9907 32.389H100.133C101.904 32.389 103.245 32.6332 104.244 33.068C106.526 34.0485 107.086 36.0077 107.094 38.3222V38.3777ZM95.2642 11.7119C95.2642 11.3185 95.5999 10.9998 96.0139 10.9998H99.6204C101.205 10.9998 102.404 11.2311 103.299 11.6445C105.355 12.5788 105.849 14.4601 105.849 16.6746C105.849 18.7053 105.355 20.4882 103.299 21.3861C102.404 21.7776 101.205 21.9998 99.6204 21.9998H96.0139C95.5999 21.9998 95.2642 21.6811 95.2642 21.2877V11.7119ZM165 10.6444V0.723064C165 0.323622 164.67 0 164.264 0H124.107C123.7 0 123.371 0.323622 123.371 0.723064V10.5963C123.371 10.9957 123.7 11.3194 124.107 11.3194H144.739C145.349 11.3194 145.694 12.0054 145.324 12.4807L122.509 41.8249C122.326 42.0597 121.946 41.9044 121.984 41.6104C122.059 41.0223 122.105 40.4398 122.105 39.9035C122.105 32.5601 118.221 28.4935 112.648 26.9993C112.362 26.9216 112.365 26.524 112.65 26.4427C117.571 25.0409 120.599 20.9411 120.599 15.1122C120.599 5.94909 115.732 0.0147941 103.574 0.0147941H87.4957C87.4919 0.0147941 87.4893 0.0109298 87.4908 0.00739707C87.4922 0.00386436 87.4896 0 87.4858 0H73.2088C72.9171 0 72.6526 0.170133 72.5351 0.430879L62.7622 22.2153C62.5042 22.7904 61.6734 22.7904 61.4155 22.2153L51.6427 0.430879C51.525 0.170133 51.2607 0 50.9689 0H36.1285C35.8366 0 35.5723 0.170133 35.4546 0.430879L25.6823 22.2134C25.4241 22.7885 24.5927 22.7885 24.3347 22.2134L14.5622 0.430879C14.4447 0.170133 14.1802 0 13.8885 0H0.737175C0.204147 0 -0.152209 0.538137 0.0643925 1.0171L24.3358 54.57C24.595 55.1433 25.422 55.1433 25.6812 54.57L43.2811 15.7373C43.3841 15.5098 43.7132 15.5098 43.8164 15.7373L54.6414 39.6206C54.7257 39.8073 54.7261 40.02 54.6421 40.2068L48.4541 53.9653C48.2392 54.4424 48.5956 54.9806 49.1276 54.9806H62.0991C62.3899 54.9806 62.6536 54.8123 62.7716 54.5515L80.0949 16.3272C80.2243 16.0424 80.6584 16.133 80.6584 16.4437V54.2723C80.6584 54.6699 80.9882 54.9935 81.3947 54.9935H103.656C112.344 54.9935 117.791 52.3731 120.355 47.6519C120.499 47.3875 120.906 47.4836 120.908 47.7851L120.955 54.2575C120.955 54.657 121.285 54.9806 121.691 54.9806H164.264C164.67 54.9806 165 54.657 165 54.2575V44.3843C165 43.9848 164.67 43.6612 164.264 43.6612H141.007C140.397 43.6612 140.052 42.9751 140.422 42.4999L164.849 11.0827C164.947 10.9569 165 10.8034 165 10.6444Z" fill="#131313"/>
</svg>
